<svg xmlns="http://www.w3.org/2000/svg" width="100" height="100" viewBox="0 0 100 100" fill="none"
    stroke-linecap="round" stroke-linejoin="round">
    <defs>
        <linearGradient id="logoBg" x1="0%" x2="100%" y1="0%" y2="100%">
            <stop offset="15%" stop-color="#fd00f3" />
            <stop offset="45%" stop-color="#ffab00" />
            <stop offset="70%" stop-color="#00fc87" />
            <stop offset="95%" stop-color="#7300ff" />
        </linearGradient>
    </defs>
    <g stroke="black">
        <circle cx="50" cy="50" r="40" stroke="transparent" fill="url(#logoBg)" filter="saturate(.5) brightness(.7)" />
        <circle cx="50" cy="50" r="40" />
    </g>
    <g stroke="black">
        <polyline points="24,20 35,25 40,30 50,50" />
        <polyline points="80,24 75,25 60,45 50,50" />
        <polyline points="13,35 25,40 35,35 50,50" />
        <polyline points="62,12 55,15 55,40 50,50" />
        <line x1="50" x2="50" y1="50" y2="90" />
        <line x1="11.5" x2="88.5" y1="60" y2="60" />
        <line x1="15.7" x2="84.5" y1="70" y2="70" />
        <line x1="24" x2="76" y1="80" y2="80" />
    </g>
</svg>